#!OML:ASF H:\Terrain\Patient Classification 1\Animal1\Tuesday\Animal1.ASF
:FULLY-SPECIFIED
:DEGREES
2599
root 6.95052 16.5714 -14.4284 -350.552 6.26538 1.8698
lowerback -5.2157 -1.3739 -1.07023
upperback -1.25948 -1.766 -0.325042
thorax 1.64971 -0.884628 0.150596
lowerneck 2.18929 -6.27114 -10.1684
upperneck 9.41335 -8.67059 4.12405
head 3.42145 -4.54399 2.93865
rclavicle 2.30062e-014 -1.49585e-014
rhumerus -31.7123 1.29527 -79.0457
rradius 26.8021
rwrist -15.2539
rhand -22.2646 31.7237
rfingers 7.12502
rthumb 4.15327 1.78443
lclavicle 2.30062e-014 -1.49585e-014
lhumerus -36.4177 16.6486 71.8739
lradius 32.3742
lwrist -15.0376
lhand -0.987401 48.2314
lfingers 7.12502
lthumb 24.6443 76.6647
rfemur -15.2972 24.4465 18.0547
rtibia 19.0875
rfoot -22.159 -41.243
rtoes 32.6227
lfemur -6.2032 -27.6882 -15.9025
ltibia 6.36111e-015
lfoot -9.99909 34.3527
ltoes 15.4147
2600
root 6.9527 16.5711 -14.4197 -350.417 6.16625 1.80707
lowerback -5.37063 -1.41457 -1.04869
upperback -1.44904 -1.82121 -0.285493
thorax 1.54264 -0.911166 0.174424
lowerneck 2.24662 -6.33693 -9.98243
upperneck 9.16195 -8.76542 4.14809
head 3.32002 -4.58068 2.91308
rclavicle 1.22066e-014 6.26172e-015
rhumerus -32.2253 3.20369 -80.1482
rradius 27.2167
rwrist -14.4774
rhand -22.9056 31.6067
rfingers 7.12502
rthumb 3.5343 1.65625
lclavicle 1.22066e-014 6.26172e-015
lhumerus -36.7126 15.9401 72.5675
lradius 32.3638
lwrist -15.1375
lhand -0.639439 48.423
lfingers 7.12502
lthumb 24.9778 76.8104
rfemur -15.2252 25.2536 17.972
rtibia 18.6619
rfoot -23.8023 -41.2374
rtoes 34.7444
lfemur -6.27552 -27.5968 -15.8104
ltibia -1.98785e-014
lfoot -9.80143 34.332
ltoes 14.6947
2601
root 6.95068 16.5699 -14.4163 -350.237 6.11882 1.39386
lowerback -5.49828 -1.44567 -0.699433
upperback -1.68621 -1.88453 -0.109475
thorax 1.36564 -0.94117 0.155753
lowerneck 2.16437 -6.44329 -9.95343
upperneck 9.07377 -8.90067 4.15145
head 3.31415 -4.64476 2.90132
rclavicle -3.73032e-015 -1.3418e-014
rhumerus -32.875 5.31021 -81.2607
rradius 27.9195
rwrist -14.2365
rhand -23.4596 30.2824
rfingers 7.12502
rthumb 2.9992 0.323721
lclavicle -3.73032e-015 -1.3418e-014
lhumerus -37.0559 15.1597 73.3729
lradius 32.5417
lwrist -15.2458
lhand 0.956003 49.781
lfingers 7.12502
lthumb 26.5057 77.9469
rfemur -15.3339 26.0542 18.2401
rtibia 18.3298
rfoot -24.6855 -41.5751
rtoes 35.9939
lfemur -6.5141 -27.4753 -15.2258
ltibia -1.82882e-014
lfoot -10.1087 34.2796
ltoes 15.7954
2602
root 6.95172 16.5708 -14.4049 -350.116 6.14146 1.14848
lowerback -5.64213 -1.46994 -0.427291
upperback -1.90088 -1.93256 -0.0211224
thorax 1.21978 -0.964503 0.0905334
lowerneck 2.26822 -6.58922 -10.0586
upperneck 8.90864 -9.11757 4.3105
head 3.27241 -4.75093 2.97158
rclavicle 3.82039e-016 3.8763e-015
rhumerus -33.4813 6.71648 -82.1381
rradius 28.5099
rwrist -14.2567
rhand -22.9109 29.4686
rfingers 7.12502
rthumb 3.52915 -0.481968
lclavicle 3.82039e-016 3.8763e-015
lhumerus -37.3342 14.4385 74.0785
lradius 32.6079
lwrist -15.7688
lhand 4.35927 52.4499
lfingers 7.12502
lthumb 29.7586 80.0806
rfemur -15.3381 26.7124 18.3919
rtibia 18.1157
rfoot -25.4097 -41.9015
rtoes 36.7065
lfemur -6.63771 -27.4629 -14.8827
ltibia 3.97569e-015
lfoot -10.6424 34.2415
ltoes 17.3233
2603
root 6.96043 16.5759 -14.3783 -350.129 6.13591 1.44563
lowerback -5.87919 -1.52876 -0.597054
upperback -1.96415 -1.99797 -0.128741
thorax 1.28893 -0.997059 0.0650545
lowerneck 2.34378 -6.71108 -10.3035
upperneck 8.63248 -9.31333 4.68119
head 3.21947 -4.84439 3.14246
rclavicle 1.26104e-015 2.38542e-015
rhumerus -33.8606 7.63845 -82.8988
rradius 28.8279
rwrist -13.9678
rhand -21.814 29.5083
rfingers 7.12502
rthumb 4.58837 -0.422041
lclavicle 1.26104e-015 2.38542e-015
lhumerus -37.4803 13.5137 74.8547
lradius 32.6376
lwrist -16.1426
lhand 5.17335 51.9929
lfingers 7.12502
lthumb 30.5353 79.4819
rfemur -15.0164 27.3199 18.0647
rtibia 17.9261
rfoot -26.0893 -42.2643
rtoes 36.9862
lfemur -6.40828 -27.5569 -15.3368
ltibia -5.56597e-015
lfoot -11.2317 34.1328
ltoes 18.7862
2604
root 6.96441 16.5788 -14.3608 -350.059 6.02693 1.63064
lowerback -6.09942 -1.54694 -0.72539
upperback -2.06154 -2.01202 -0.182138
thorax 1.31382 -1.00379 0.0763964
lowerneck 2.41058 -6.79915 -10.506
upperneck 8.59267 -9.49187 5.27009
head 2.92722 -4.90656 3.04388
rclavicle 1.30421e-014 2.2413e-014
rhumerus -34.0908 8.42052 -83.574
rradius 28.9227
rwrist -13.3997
rhand -20.7077 29.4068
rfingers 7.12502
rthumb 5.65654 -0.497687
lclavicle 1.30421e-014 2.2413e-014
lhumerus -37.647 12.3066 75.8555
lradius 32.8025
lwrist -15.9568
lhand 3.82535 49.5287
lfingers 7.12502
lthumb 29.2489 77.2493
rfemur -14.9558 27.973 17.7801
rtibia 17.8425
rfoot -27.2458 -42.4242
rtoes 38.0171
lfemur -6.32046 -27.5136 -15.5994
ltibia -1.51076e-014
lfoot -11.8095 34.0039
ltoes 20.1468
